<svg width="380" height="140" viewBox="0 0 380 140" fill="none" xmlns="http://www.w3.org/2000/svg">
<rect width="380" height="140" fill="url(#paint0_linear_130_179)"/>
<path d="M73.0176 55H85.0176V85H61.0176V61H73.0176V55ZM67.0176 67V79H73.0176V67H67.0176ZM91.0176 55H103.018V61H91.0176V55ZM91.0176 67H103.018V85H91.0176V67ZM109.006 61H133.006V73H127.006V67H121.006V79H133.006V85H109.006V61ZM139.006 61H163.006V73H157.006V79H163.006V85H139.006V61ZM145.006 67V79H151.006V67H145.006ZM169.006 55H181.006V73H187.006V55H193.006V73H199.006V55H211.006V85H193.006V79H187.006V85H169.006V55ZM216.994 55H228.994V61H240.994V85H234.994V67H228.994V85H216.994V55ZM246.994 61H270.994V73H264.994V79H270.994V85H246.994V61ZM252.994 67V79H258.994V67H252.994ZM276.994 61H300.994V73H294.994V79H300.994V85H276.994V61ZM282.994 67V79H288.994V67H282.994ZM306.994 55H318.994V85H306.994V55Z" fill="white"/>
<defs>
<linearGradient id="paint0_linear_130_179" x1="0" y1="0" x2="380" y2="140" gradientUnits="userSpaceOnUse">
<stop stop-color="#0493ED"/>
<stop offset="1" stop-color="#0162BF"/>
</linearGradient>
</defs>
</svg>
